<svg width="240" height="38" viewBox="0 0 240 38" fill="none" xmlns="http://www.w3.org/2000/svg">
<path d="M38.68 31V28.24H41.53V12.82H38.68V10.06H47.8V12.82H44.92V28.24H47.8V31H38.68ZM51.8205 31V15.4H55.0905V17.98H55.2405C55.4005 17.58 55.5905 17.2 55.8105 16.84C56.0505 16.48 56.3305 16.17 56.6505 15.91C56.9905 15.63 57.3805 15.42 57.8205 15.28C58.2805 15.12 58.8105 15.04 59.4105 15.04C60.4705 15.04 61.4105 15.3 62.2305 15.82C63.0505 16.34 63.6505 17.14 64.0305 18.22H64.1205C64.4005 17.34 64.9405 16.59 65.7405 15.97C66.5405 15.35 67.5705 15.04 68.8305 15.04C70.3905 15.04 71.6005 15.57 72.4605 16.63C73.3205 17.67 73.7505 19.16 73.7505 21.1V31H70.4805V21.49C70.4805 20.29 70.2505 19.39 69.7905 18.79C69.3305 18.17 68.6005 17.86 67.6005 17.86C67.1805 17.86 66.7805 17.92 66.4005 18.04C66.0205 18.14 65.6805 18.3 65.3805 18.52C65.1005 18.74 64.8705 19.02 64.6905 19.36C64.5105 19.7 64.4205 20.09 64.4205 20.53V31H61.1505V21.49C61.1505 19.07 60.2005 17.86 58.3005 17.86C57.9005 17.86 57.5005 17.92 57.1005 18.04C56.7205 18.14 56.3805 18.3 56.0805 18.52C55.7805 18.74 55.5405 19.02 55.3605 19.36C55.1805 19.7 55.0905 20.09 55.0905 20.53V31H51.8205ZM89.7055 31C88.8455 31 88.1855 30.76 87.7255 30.28C87.2655 29.78 86.9855 29.15 86.8855 28.39H86.7355C86.4355 29.37 85.8855 30.11 85.0855 30.61C84.2855 31.11 83.3155 31.36 82.1755 31.36C80.5555 31.36 79.3055 30.94 78.4255 30.1C77.5655 29.26 77.1355 28.13 77.1355 26.71C77.1355 25.15 77.6955 23.98 78.8155 23.2C79.9555 22.42 81.6155 22.03 83.7955 22.03H86.6155V20.71C86.6155 19.75 86.3555 19.01 85.8355 18.49C85.3155 17.97 84.5055 17.71 83.4055 17.71C82.4855 17.71 81.7355 17.91 81.1555 18.31C80.5755 18.71 80.0855 19.22 79.6855 19.84L77.7355 18.07C78.2555 17.19 78.9855 16.47 79.9255 15.91C80.8655 15.33 82.0955 15.04 83.6155 15.04C85.6355 15.04 87.1855 15.51 88.2655 16.45C89.3455 17.39 89.8855 18.74 89.8855 20.5V28.33H91.5355V31H89.7055ZM83.1055 28.87C84.1255 28.87 84.9655 28.65 85.6255 28.21C86.2855 27.75 86.6155 27.14 86.6155 26.38V24.13H83.8555C81.5955 24.13 80.4655 24.83 80.4655 26.23V26.77C80.4655 27.47 80.6955 28 81.1555 28.36C81.6355 28.7 82.2855 28.87 83.1055 28.87ZM108.42 32.47C108.42 34.09 107.8 35.31 106.56 36.13C105.32 36.95 103.3 37.36 100.5 37.36C99.2204 37.36 98.1304 37.27 97.2304 37.09C96.3504 36.93 95.6204 36.69 95.0404 36.37C94.4804 36.05 94.0704 35.66 93.8104 35.2C93.5504 34.74 93.4204 34.21 93.4204 33.61C93.4204 32.75 93.6504 32.08 94.1104 31.6C94.5904 31.12 95.2504 30.79 96.0904 30.61V30.28C94.9104 29.9 94.3204 29.1 94.3204 27.88C94.3204 27.08 94.5904 26.47 95.1304 26.05C95.6704 25.61 96.3204 25.3 97.0804 25.12V25C96.1604 24.56 95.4504 23.95 94.9504 23.17C94.4704 22.37 94.2304 21.44 94.2304 20.38C94.2304 18.78 94.7604 17.49 95.8204 16.51C96.9004 15.53 98.4404 15.04 100.44 15.04C101.54 15.04 102.48 15.2 103.26 15.52V15.1C103.26 14.4 103.42 13.86 103.74 13.48C104.08 13.08 104.6 12.88 105.3 12.88H107.7V15.52H104.52V16.15C105.22 16.61 105.76 17.21 106.14 17.95C106.52 18.67 106.71 19.48 106.71 20.38C106.71 21.96 106.17 23.24 105.09 24.22C104.01 25.18 102.47 25.66 100.47 25.66C99.7104 25.66 99.0304 25.58 98.4304 25.42C98.0304 25.56 97.6804 25.76 97.3804 26.02C97.0804 26.26 96.9304 26.58 96.9304 26.98C96.9304 27.4 97.1204 27.7 97.5004 27.88C97.8804 28.06 98.4204 28.15 99.1204 28.15H102.96C104.88 28.15 106.27 28.54 107.13 29.32C107.99 30.08 108.42 31.13 108.42 32.47ZM105.36 32.83C105.36 32.29 105.15 31.86 104.73 31.54C104.33 31.22 103.59 31.06 102.51 31.06H97.2304C96.5104 31.48 96.1504 32.08 96.1504 32.86C96.1504 33.5 96.4004 34.01 96.9004 34.39C97.4204 34.79 98.2904 34.99 99.5104 34.99H101.55C104.09 34.99 105.36 34.27 105.36 32.83ZM100.47 23.29C101.43 23.29 102.17 23.08 102.69 22.66C103.23 22.22 103.5 21.55 103.5 20.65V20.05C103.5 19.15 103.23 18.49 102.69 18.07C102.17 17.63 101.43 17.41 100.47 17.41C99.5104 17.41 98.7604 17.63 98.2204 18.07C97.7004 18.49 97.4404 19.15 97.4404 20.05V20.65C97.4404 21.55 97.7004 22.22 98.2204 22.66C98.7604 23.08 99.5104 23.29 100.47 23.29ZM116.798 31.36C115.678 31.36 114.678 31.17 113.798 30.79C112.918 30.41 112.168 29.87 111.548 29.17C110.928 28.45 110.448 27.59 110.108 26.59C109.788 25.57 109.628 24.44 109.628 23.2C109.628 21.96 109.788 20.84 110.108 19.84C110.448 18.82 110.928 17.96 111.548 17.26C112.168 16.54 112.918 15.99 113.798 15.61C114.678 15.23 115.678 15.04 116.798 15.04C117.938 15.04 118.938 15.24 119.798 15.64C120.678 16.04 121.408 16.6 121.988 17.32C122.568 18.02 122.998 18.84 123.278 19.78C123.578 20.72 123.728 21.73 123.728 22.81V24.04H113.018V24.55C113.018 25.75 113.368 26.74 114.068 27.52C114.788 28.28 115.808 28.66 117.128 28.66C118.088 28.66 118.898 28.45 119.558 28.03C120.218 27.61 120.778 27.04 121.238 26.32L123.158 28.21C122.578 29.17 121.738 29.94 120.638 30.52C119.538 31.08 118.258 31.36 116.798 31.36ZM116.798 17.59C116.238 17.59 115.718 17.69 115.238 17.89C114.778 18.09 114.378 18.37 114.038 18.73C113.718 19.09 113.468 19.52 113.288 20.02C113.108 20.52 113.018 21.07 113.018 21.67V21.88H120.278V21.58C120.278 20.38 119.968 19.42 119.348 18.7C118.728 17.96 117.878 17.59 116.798 17.59ZM148.148 27.82H148.028C147.808 28.84 147.208 29.69 146.228 30.37C145.268 31.03 143.988 31.36 142.388 31.36C141.148 31.36 139.998 31.13 138.938 30.67C137.878 30.19 136.958 29.5 136.178 28.6C135.418 27.68 134.818 26.55 134.378 25.21C133.958 23.85 133.748 22.29 133.748 20.53C133.748 18.79 133.968 17.25 134.408 15.91C134.848 14.55 135.468 13.41 136.268 12.49C137.068 11.57 138.028 10.88 139.148 10.42C140.268 9.94 141.518 9.7 142.898 9.7C144.778 9.7 146.368 10.12 147.668 10.96C148.968 11.78 149.978 12.93 150.698 14.41L147.938 16.03C147.538 15.05 146.918 14.26 146.078 13.66C145.238 13.04 144.178 12.73 142.898 12.73C141.238 12.73 139.898 13.26 138.878 14.32C137.878 15.38 137.378 16.88 137.378 18.82V22.24C137.378 24.18 137.878 25.68 138.878 26.74C139.898 27.8 141.238 28.33 142.898 28.33C143.558 28.33 144.188 28.25 144.788 28.09C145.388 27.91 145.908 27.66 146.348 27.34C146.808 27 147.168 26.59 147.428 26.11C147.708 25.61 147.848 25.03 147.848 24.37V22.75H143.528V19.84H151.118V31H148.148V27.82ZM161.71 31.36C160.59 31.36 159.59 31.17 158.71 30.79C157.83 30.41 157.08 29.87 156.46 29.17C155.84 28.45 155.36 27.59 155.02 26.59C154.7 25.57 154.54 24.44 154.54 23.2C154.54 21.96 154.7 20.84 155.02 19.84C155.36 18.82 155.84 17.96 156.46 17.26C157.08 16.54 157.83 15.99 158.71 15.61C159.59 15.23 160.59 15.04 161.71 15.04C162.85 15.04 163.85 15.24 164.71 15.64C165.59 16.04 166.32 16.6 166.9 17.32C167.48 18.02 167.91 18.84 168.19 19.78C168.49 20.72 168.64 21.73 168.64 22.81V24.04H157.93V24.55C157.93 25.75 158.28 26.74 158.98 27.52C159.7 28.28 160.72 28.66 162.04 28.66C163 28.66 163.81 28.45 164.47 28.03C165.13 27.61 165.69 27.04 166.15 26.32L168.07 28.21C167.49 29.17 166.65 29.94 165.55 30.52C164.45 31.08 163.17 31.36 161.71 31.36ZM161.71 17.59C161.15 17.59 160.63 17.69 160.15 17.89C159.69 18.09 159.29 18.37 158.95 18.73C158.63 19.09 158.38 19.52 158.2 20.02C158.02 20.52 157.93 21.07 157.93 21.67V21.88H165.19V21.58C165.19 20.38 164.88 19.42 164.26 18.7C163.64 17.96 162.79 17.59 161.71 17.59ZM172.26 31V15.4H175.53V17.98H175.68C176.02 17.14 176.53 16.44 177.21 15.88C177.91 15.32 178.86 15.04 180.06 15.04C181.66 15.04 182.9 15.57 183.78 16.63C184.68 17.67 185.13 19.16 185.13 21.1V31H181.86V21.52C181.86 19.08 180.88 17.86 178.92 17.86C178.5 17.86 178.08 17.92 177.66 18.04C177.26 18.14 176.9 18.3 176.58 18.52C176.26 18.74 176 19.02 175.8 19.36C175.62 19.7 175.53 20.1 175.53 20.56V31H172.26ZM191.312 12.61C190.632 12.61 190.132 12.45 189.812 12.13C189.512 11.81 189.362 11.4 189.362 10.9V10.39C189.362 9.89 189.512 9.48 189.812 9.16C190.132 8.84 190.632 8.68 191.312 8.68C191.992 8.68 192.482 8.84 192.782 9.16C193.082 9.48 193.232 9.89 193.232 10.39V10.9C193.232 11.4 193.082 11.81 192.782 12.13C192.482 12.45 191.992 12.61 191.312 12.61ZM189.662 15.4H192.932V31H189.662V15.4ZM207.052 28.42H206.932C206.792 28.8 206.602 29.17 206.362 29.53C206.142 29.89 205.852 30.21 205.492 30.49C205.152 30.75 204.732 30.96 204.232 31.12C203.752 31.28 203.192 31.36 202.552 31.36C200.932 31.36 199.672 30.84 198.772 29.8C197.892 28.76 197.452 27.27 197.452 25.33V15.4H200.722V24.91C200.722 27.33 201.722 28.54 203.722 28.54C204.142 28.54 204.552 28.49 204.952 28.39C205.352 28.27 205.702 28.1 206.002 27.88C206.322 27.66 206.572 27.38 206.752 27.04C206.952 26.7 207.052 26.3 207.052 25.84V15.4H210.322V31H207.052V28.42ZM219.954 31.36C218.474 31.36 217.234 31.1 216.234 30.58C215.234 30.06 214.364 29.34 213.624 28.42L215.724 26.5C216.304 27.2 216.944 27.75 217.644 28.15C218.364 28.53 219.194 28.72 220.134 28.72C221.094 28.72 221.804 28.54 222.264 28.18C222.744 27.8 222.984 27.28 222.984 26.62C222.984 26.12 222.814 25.7 222.474 25.36C222.154 25 221.584 24.77 220.764 24.67L219.324 24.49C217.724 24.29 216.464 23.83 215.544 23.11C214.644 22.37 214.194 21.28 214.194 19.84C214.194 19.08 214.334 18.41 214.614 17.83C214.894 17.23 215.284 16.73 215.784 16.33C216.304 15.91 216.914 15.59 217.614 15.37C218.334 15.15 219.124 15.04 219.984 15.04C221.384 15.04 222.524 15.26 223.404 15.7C224.304 16.14 225.104 16.75 225.804 17.53L223.794 19.45C223.394 18.97 222.864 18.56 222.204 18.22C221.564 17.86 220.824 17.68 219.984 17.68C219.084 17.68 218.414 17.86 217.974 18.22C217.554 18.58 217.344 19.05 217.344 19.63C217.344 20.23 217.534 20.68 217.914 20.98C218.294 21.28 218.904 21.5 219.744 21.64L221.184 21.82C222.904 22.08 224.154 22.59 224.934 23.35C225.734 24.09 226.134 25.09 226.134 26.35C226.134 27.11 225.984 27.8 225.684 28.42C225.404 29.02 224.994 29.54 224.454 29.98C223.914 30.42 223.264 30.76 222.504 31C221.744 31.24 220.894 31.36 219.954 31.36Z" fill="url(#paint0_linear_4_5)" fill-opacity="0.8"/>
<path d="M23.676 16.0062H21.616C22.201 14.0475 22.096 12.4901 21.304 11.6974C20.848 11.241 20.138 11.0118 19.244 11.0118C16.575 11.0118 12.263 13.0516 8.156 17.1632C7.601 17.7187 7.094 18.2772 6.615 18.8357L6.009 16.5167C6.25 16.2594 6.488 16.0012 6.741 15.748C12.752 9.73365 19.77 7.33252 22.719 10.2821C23.997 11.5613 24.267 13.6091 23.676 16.0062ZM18.498 13.504L19.674 18.008H24V18.9258L20.7 20.8365L22.026 24.8691L21.276 25.3926L18.015 22.8693L14.74 25.4036L14.019 24.8601L15.323 20.7805L12 18.9308V18.008H16.35L17.528 13.504H18.498ZM19.5 28.0169C18.672 28.0169 18 28.6895 18 29.5182C18 30.347 18.672 31.0196 19.5 31.0196C20.328 31.0196 21 30.347 21 29.5182C21 28.6895 20.328 28.0169 19.5 28.0169ZM1.5 12.0027C0.672 12.0027 0 12.6753 0 13.504C0 14.3327 0.672 15.0053 1.5 15.0053C2.328 15.0053 3 14.3327 3 13.504C3 12.6753 2.328 12.0027 1.5 12.0027ZM6.5 9C5.672 9 5 9.6726 5 10.5013C5 11.3301 5.672 12.0027 6.5 12.0027C7.328 12.0027 8 11.3301 8 10.5013C8 9.6726 7.328 9 6.5 9ZM8 21.6793L5.161 20.8495L4.332 18.008H3.685L2.844 20.8475L0 21.6793V22.3268L2.843 23.1696L3.685 26.0151H4.332L5.163 23.1686L8 22.3268V21.6793ZM13.487 26.974C11.167 28.8456 8.896 30.0607 7 30.6302C5.043 31.2157 3.463 31.1407 2.672 30.349C2.216 29.8926 1.987 29.1819 1.987 28.2871C1.987 28.0569 2.023 27.7997 2.053 27.5465L1.234 24.78L0.739 24.6329C-0.35 27.6275 -0.263 30.2399 1.258 31.7632C2.536 33.0423 4.605 33.2856 7 32.694C9.486 32.0785 12.347 30.5351 15.127 28.2171L13.488 26.973L13.487 26.974Z" fill="url(#paint1_linear_4_5)"/>
<defs>
<linearGradient id="paint0_linear_4_5" x1="37" y1="13.5" x2="240" y2="13.5" gradientUnits="userSpaceOnUse">
<stop stop-color="#7DD3FC"/>
<stop offset="1" stop-color="#0284C7"/>
</linearGradient>
<linearGradient id="paint1_linear_4_5" x1="12" y1="9" x2="12" y2="33" gradientUnits="userSpaceOnUse">
<stop stop-color="#7DD3FC"/>
<stop offset="1" stop-color="#0284C7"/>
</linearGradient>
</defs>
</svg>
